<svg xmlns="http://www.w3.org/2000/svg" xmlns:xlink="http://www.w3.org/1999/xlink" width="500" zoomAndPan="magnify" viewBox="0 0 375 374.999991" height="500" preserveAspectRatio="xMidYMid meet" version="1.0"><defs><g/></defs><g fill="#ffe4e4" fill-opacity="1"><g transform="translate(116.35874, 214.447529)"><g><path d="M 41.328125 -74.359375 L 41.328125 -71.859375 L 31.78125 -71.859375 L 31.78125 -2.5 L 40.078125 -2.5 C 44.015625 -2.5 47.6875 -3.289062 51.09375 -4.875 C 54.5 -6.46875 57.445312 -8.703125 59.9375 -11.578125 C 61.226562 -13.085938 62.457031 -14.921875 63.625 -17.078125 C 64.800781 -19.242188 65.617188 -21.765625 66.078125 -24.640625 L 69.25 -24.640625 L 68 0 L 4.765625 0 L 4.765625 -2.5 L 14.3125 -2.5 L 14.3125 -71.859375 L 4.765625 -71.859375 L 4.765625 -74.359375 Z M 41.328125 -74.359375 "/></g></g></g><g fill="#ffe4e4" fill-opacity="1"><g transform="translate(193.219659, 214.447529)"><g><path d="M 52 -53.25 C 50.707031 -57.101562 49.054688 -60.410156 47.046875 -63.171875 C 45.046875 -65.941406 43.023438 -68.007812 40.984375 -69.375 C 38.941406 -70.726562 36.953125 -71.59375 35.015625 -71.96875 C 33.085938 -72.351562 31.332031 -72.546875 29.75 -72.546875 C 28.15625 -72.546875 26.488281 -72.394531 24.75 -72.09375 C 23.007812 -71.789062 21.421875 -71.109375 19.984375 -70.046875 C 18.691406 -68.984375 17.816406 -67.847656 17.359375 -66.640625 C 16.910156 -65.429688 16.6875 -64.109375 16.6875 -62.671875 C 16.6875 -61.160156 16.929688 -59.796875 17.421875 -58.578125 C 17.921875 -57.367188 18.8125 -56.234375 20.09375 -55.171875 C 21.382812 -54.035156 22.671875 -53.238281 23.953125 -52.78125 C 25.242188 -52.332031 26.644531 -51.804688 28.15625 -51.203125 L 44.28125 -44.84375 C 46.695312 -43.863281 49.003906 -42.671875 51.203125 -41.265625 C 53.398438 -39.867188 55.367188 -37.84375 57.109375 -35.1875 C 58.171875 -33.53125 59.019531 -31.675781 59.65625 -29.625 C 60.300781 -27.582031 60.625 -25.351562 60.625 -22.9375 C 60.625 -21.800781 60.53125 -20.515625 60.34375 -19.078125 C 60.15625 -17.640625 59.773438 -16.101562 59.203125 -14.46875 C 58.640625 -12.84375 57.828125 -11.195312 56.765625 -9.53125 C 55.703125 -7.863281 54.335938 -6.273438 52.671875 -4.765625 C 49.953125 -2.347656 47.132812 -0.6875 44.21875 0.21875 C 41.300781 1.132812 38.03125 1.59375 34.40625 1.59375 C 32.8125 1.59375 31.410156 1.515625 30.203125 1.359375 C 28.992188 1.210938 27.859375 1.023438 26.796875 0.796875 C 25.734375 0.566406 24.707031 0.285156 23.71875 -0.046875 C 22.738281 -0.390625 21.644531 -0.753906 20.4375 -1.140625 C 18.695312 -1.742188 17.390625 -2.175781 16.515625 -2.4375 C 15.648438 -2.707031 14.835938 -2.84375 14.078125 -2.84375 C 13.546875 -2.84375 12.804688 -2.691406 11.859375 -2.390625 C 10.910156 -2.085938 10.0625 -1.289062 9.3125 0 L 5.21875 0 L 4.765625 -26.453125 L 7.5 -26.453125 C 7.71875 -25.617188 8.207031 -24.066406 8.96875 -21.796875 C 9.726562 -19.523438 10.863281 -17.140625 12.375 -14.640625 C 13.4375 -12.972656 14.609375 -11.421875 15.890625 -9.984375 C 17.179688 -8.546875 18.582031 -7.300781 20.09375 -6.25 C 21.457031 -5.257812 23.347656 -4.269531 25.765625 -3.28125 C 28.191406 -2.300781 31.03125 -1.8125 34.28125 -1.8125 C 37.46875 -1.8125 39.910156 -2.171875 41.609375 -2.890625 C 43.304688 -3.609375 44.421875 -4.160156 44.953125 -4.546875 C 46.472656 -5.597656 47.6875 -6.9375 48.59375 -8.5625 C 49.5 -10.195312 49.953125 -11.957031 49.953125 -13.84375 C 49.953125 -15.96875 49.535156 -17.785156 48.703125 -19.296875 C 47.867188 -20.816406 46.789062 -22.101562 45.46875 -23.15625 C 44.144531 -24.21875 42.664062 -25.125 41.03125 -25.875 C 39.40625 -26.632812 37.800781 -27.316406 36.21875 -27.921875 L 22.703125 -33.265625 C 20.503906 -34.097656 18.382812 -35.140625 16.34375 -36.390625 C 14.300781 -37.640625 12.445312 -39.359375 10.78125 -41.546875 C 9.269531 -43.515625 8.226562 -45.5 7.65625 -47.5 C 7.09375 -49.507812 6.8125 -51.5 6.8125 -53.46875 C 6.8125 -54.375 6.882812 -55.546875 7.03125 -56.984375 C 7.1875 -58.429688 7.53125 -59.96875 8.0625 -61.59375 C 8.59375 -63.21875 9.382812 -64.863281 10.4375 -66.53125 C 11.5 -68.195312 12.941406 -69.710938 14.765625 -71.078125 C 16.648438 -72.585938 18.878906 -73.773438 21.453125 -74.640625 C 24.023438 -75.515625 26.941406 -75.953125 30.203125 -75.953125 C 34.140625 -75.953125 37.582031 -75.304688 40.53125 -74.015625 C 41.59375 -73.566406 42.539062 -73.171875 43.375 -72.828125 C 44.207031 -72.484375 45.035156 -72.3125 45.859375 -72.3125 C 47.679688 -72.3125 49.273438 -72.992188 50.640625 -74.359375 L 54.71875 -74.359375 L 54.71875 -53.25 Z M 52 -53.25 "/></g></g></g><g fill="#e86962" fill-opacity="1"><g transform="translate(91.819386, 190.064181)"><g><path d="M 44.765625 11.328125 C 44.929688 11.367188 45.0625 11.441406 45.15625 11.546875 C 45.257812 11.660156 45.296875 11.800781 45.265625 11.96875 C 45.265625 12.113281 45.203125 12.222656 45.078125 12.296875 C 44.960938 12.378906 44.816406 12.429688 44.640625 12.453125 C 44.421875 12.472656 44.191406 12.460938 43.953125 12.421875 C 42.367188 12.179688 40.78125 12.015625 39.1875 11.921875 C 37.601562 11.828125 36.019531 11.757812 34.4375 11.71875 C 34.34375 11.71875 34.234375 11.71875 34.109375 11.71875 C 32.992188 11.6875 31.882812 11.65625 30.78125 11.625 C 29.539062 11.59375 28.300781 11.554688 27.0625 11.515625 C 25.34375 11.472656 23.617188 11.476562 21.890625 11.53125 C 20.160156 11.59375 18.425781 11.691406 16.6875 11.828125 C 16.570312 11.828125 16.441406 11.832031 16.296875 11.84375 C 16.191406 11.863281 16.085938 11.875 15.984375 11.875 C 15.304688 11.894531 14.785156 12.207031 14.421875 12.8125 C 14.179688 13.195312 13.894531 13.550781 13.5625 13.875 C 13.507812 13.9375 13.457031 13.988281 13.40625 14.03125 C 12.5 15.019531 11.476562 15.6875 10.34375 16.03125 C 9.21875 16.375 8.003906 16.457031 6.703125 16.28125 C 6.242188 16.21875 5.796875 16.066406 5.359375 15.828125 C 4.648438 15.421875 4.273438 14.960938 4.234375 14.453125 C 4.203125 13.953125 4.507812 13.445312 5.15625 12.9375 C 5.945312 12.414062 6.804688 12.050781 7.734375 11.84375 C 8.867188 11.539062 10.015625 11.28125 11.171875 11.0625 C 11.273438 11.0625 11.363281 11.046875 11.4375 11.015625 C 11.988281 10.941406 12.390625 10.863281 12.640625 10.78125 C 12.890625 10.695312 13.085938 10.554688 13.234375 10.359375 C 13.378906 10.160156 13.539062 9.835938 13.71875 9.390625 C 13.78125 9.242188 13.851562 9.070312 13.9375 8.875 C 14.519531 7.570312 14.992188 6.242188 15.359375 4.890625 C 15.722656 3.546875 16.046875 2.179688 16.328125 0.796875 C 17.816406 -6.398438 18.710938 -13.671875 19.015625 -21.015625 C 19.097656 -22.898438 19.09375 -24.773438 19 -26.640625 C 18.914062 -28.515625 18.703125 -30.382812 18.359375 -32.25 C 18.242188 -33.007812 18.023438 -33.738281 17.703125 -34.4375 C 17.398438 -35.0625 17.035156 -35.460938 16.609375 -35.640625 C 16.191406 -35.828125 15.644531 -35.8125 14.96875 -35.59375 C 13.601562 -35.164062 12.347656 -34.535156 11.203125 -33.703125 C 8.992188 -32.128906 7.164062 -30.285156 5.71875 -28.171875 C 4.269531 -26.066406 3.234375 -23.679688 2.609375 -21.015625 C 2.316406 -19.859375 2.253906 -18.695312 2.421875 -17.53125 C 2.566406 -16.601562 2.851562 -15.785156 3.28125 -15.078125 C 3.71875 -14.367188 4.394531 -13.820312 5.3125 -13.4375 C 5.445312 -13.375 5.566406 -13.289062 5.671875 -13.1875 C 5.710938 -13.164062 5.742188 -13.144531 5.765625 -13.125 C 5.847656 -13.0625 5.878906 -12.96875 5.859375 -12.84375 C 5.835938 -12.726562 5.773438 -12.628906 5.671875 -12.546875 C 5.367188 -12.328125 5.035156 -12.238281 4.671875 -12.28125 C 3.816406 -12.363281 3.078125 -12.6875 2.453125 -13.25 C 1.523438 -14.082031 0.882812 -15.015625 0.53125 -16.046875 C 0.175781 -17.085938 0.0390625 -18.21875 0.125 -19.4375 C 0.238281 -21.019531 0.59375 -22.5625 1.1875 -24.0625 C 2.15625 -26.582031 3.460938 -28.820312 5.109375 -30.78125 C 6.765625 -32.75 8.769531 -34.410156 11.125 -35.765625 C 11.90625 -36.210938 12.707031 -36.570312 13.53125 -36.84375 C 14.351562 -37.113281 15.210938 -37.25 16.109375 -37.25 C 17.179688 -37.25 18.0625 -37.019531 18.75 -36.5625 C 19.4375 -36.113281 19.960938 -35.40625 20.328125 -34.4375 C 20.648438 -33.488281 20.894531 -32.515625 21.0625 -31.515625 C 21.363281 -29.492188 21.539062 -27.453125 21.59375 -25.390625 C 21.644531 -22.273438 21.546875 -19.171875 21.296875 -16.078125 C 21.054688 -12.984375 20.691406 -9.894531 20.203125 -6.8125 C 19.921875 -4.894531 19.609375 -2.984375 19.265625 -1.078125 C 18.929688 0.816406 18.519531 2.707031 18.03125 4.59375 C 17.5625 6.289062 16.984375 7.957031 16.296875 9.59375 C 16.054688 10.125 16.238281 10.367188 16.84375 10.328125 C 17.382812 10.304688 17.921875 10.273438 18.453125 10.234375 C 19.210938 10.179688 19.972656 10.140625 20.734375 10.109375 C 22.117188 10.085938 23.519531 10.085938 24.9375 10.109375 C 25.53125 10.109375 26.117188 10.109375 26.703125 10.109375 C 32.347656 10.140625 37.972656 10.457031 43.578125 11.0625 C 43.984375 11.113281 44.378906 11.203125 44.765625 11.328125 Z M 10.921875 13.515625 C 10.941406 13.492188 10.988281 13.4375 11.0625 13.34375 C 11.132812 13.257812 11.203125 13.164062 11.265625 13.0625 C 11.328125 12.957031 11.34375 12.867188 11.3125 12.796875 C 11.289062 12.722656 11.210938 12.703125 11.078125 12.734375 C 9.742188 12.867188 8.476562 13.238281 7.28125 13.84375 C 7.082031 13.945312 6.960938 14.046875 6.921875 14.140625 C 6.878906 14.242188 6.898438 14.347656 6.984375 14.453125 C 7.304688 14.835938 7.722656 14.992188 8.234375 14.921875 C 8.742188 14.847656 9.25 14.671875 9.75 14.390625 C 10.25 14.109375 10.640625 13.816406 10.921875 13.515625 Z M 10.921875 13.515625 "/></g></g></g><g fill="#e86962" fill-opacity="1"><g transform="translate(118.613609, 190.064181)"><g><path d="M 17.296875 -6.96875 C 17.421875 -6.945312 17.503906 -6.90625 17.546875 -6.84375 C 17.597656 -6.789062 17.632812 -6.703125 17.65625 -6.578125 C 17.65625 -6.273438 17.375 -5.925781 16.8125 -5.53125 C 16.257812 -5.132812 15.65625 -4.769531 15 -4.4375 C 14.34375 -4.101562 13.875 -3.894531 13.59375 -3.8125 C 12.65625 -3.445312 11.738281 -3.316406 10.84375 -3.421875 C 9.945312 -3.535156 9.164062 -4.007812 8.5 -4.84375 C 8.070312 -5.425781 7.753906 -5.691406 7.546875 -5.640625 C 7.335938 -5.597656 7.078125 -5.34375 6.765625 -4.875 C 6.441406 -4.34375 5.90625 -3.71875 5.15625 -3 C 4.3125 -2.375 3.519531 -2.078125 2.78125 -2.109375 C 2.039062 -2.148438 1.414062 -2.4375 0.90625 -2.96875 C 0.40625 -3.507812 0.0820312 -4.195312 -0.0625 -5.03125 C -0.21875 -5.875 -0.140625 -6.769531 0.171875 -7.71875 C 0.441406 -8.476562 1 -8.789062 1.84375 -8.65625 C 2.0625 -8.625 2.238281 -8.53125 2.375 -8.375 C 2.507812 -8.226562 2.546875 -8.046875 2.484375 -7.828125 C 2.304688 -7.066406 2.238281 -6.316406 2.28125 -5.578125 C 2.257812 -5.085938 2.347656 -4.628906 2.546875 -4.203125 C 2.753906 -3.835938 3.035156 -3.773438 3.390625 -4.015625 C 3.742188 -4.265625 4.097656 -4.617188 4.453125 -5.078125 C 4.804688 -5.546875 5.082031 -5.929688 5.28125 -6.234375 C 5.320312 -6.316406 5.363281 -6.390625 5.40625 -6.453125 C 5.476562 -6.554688 5.554688 -6.664062 5.640625 -6.78125 C 5.890625 -7.164062 6.148438 -7.53125 6.421875 -7.875 C 6.910156 -8.445312 7.535156 -8.691406 8.296875 -8.609375 C 8.929688 -8.566406 9.382812 -8.242188 9.65625 -7.640625 C 10.175781 -6.296875 10.945312 -5.554688 11.96875 -5.421875 C 12.988281 -5.296875 14.097656 -5.617188 15.296875 -6.390625 C 15.597656 -6.617188 15.910156 -6.789062 16.234375 -6.90625 C 16.554688 -7.03125 16.910156 -7.050781 17.296875 -6.96875 Z M 17.296875 -6.96875 "/></g></g></g><g fill="#e86962" fill-opacity="1"><g transform="translate(134.348146, 190.064181)"><g><path d="M 10.21875 -6.328125 C 10.269531 -6.347656 10.300781 -6.367188 10.3125 -6.390625 C 10.539062 -6.515625 10.789062 -6.644531 11.0625 -6.78125 C 11.34375 -6.925781 11.59375 -6.992188 11.8125 -6.984375 C 12.03125 -6.972656 12.15625 -6.820312 12.1875 -6.53125 C 12.175781 -6.113281 11.722656 -5.664062 10.828125 -5.1875 C 9.941406 -4.71875 8.847656 -4.269531 7.546875 -3.84375 C 6.253906 -3.414062 5.003906 -3.070312 3.796875 -2.8125 C 2.597656 -2.5625 1.695312 -2.453125 1.09375 -2.484375 C 0.40625 -2.554688 -0.0976562 -2.804688 -0.421875 -3.234375 C -0.742188 -3.660156 -0.863281 -4.226562 -0.78125 -4.9375 C -0.664062 -5.695312 -0.320312 -6.472656 0.25 -7.265625 C 0.832031 -8.054688 1.59375 -8.679688 2.53125 -9.140625 C 3.46875 -9.597656 4.515625 -9.722656 5.671875 -9.515625 C 5.847656 -9.492188 6 -9.425781 6.125 -9.3125 C 6.1875 -9.257812 6.242188 -9.191406 6.296875 -9.109375 C 6.347656 -9.035156 6.363281 -8.960938 6.34375 -8.890625 C 6.320312 -8.640625 6.171875 -8.476562 5.890625 -8.40625 C 5.609375 -8.332031 5.332031 -8.296875 5.0625 -8.296875 C 5.007812 -8.296875 4.953125 -8.289062 4.890625 -8.28125 C 4.160156 -8.175781 3.445312 -7.753906 2.75 -7.015625 C 2.050781 -6.273438 1.660156 -5.472656 1.578125 -4.609375 C 1.578125 -4.242188 1.9375 -4.066406 2.65625 -4.078125 C 3.375 -4.097656 4.242188 -4.242188 5.265625 -4.515625 C 6.285156 -4.796875 7.253906 -5.101562 8.171875 -5.4375 C 9.097656 -5.769531 9.78125 -6.066406 10.21875 -6.328125 Z M 10.21875 -6.328125 "/></g></g></g><g fill="#e86962" fill-opacity="1"><g transform="translate(145.269929, 190.064181)"><g><path d="M 10.046875 -6.90625 C 10.160156 -6.84375 10.210938 -6.734375 10.203125 -6.578125 C 10.191406 -6.429688 10.144531 -6.300781 10.0625 -6.1875 C 9.4375 -5.25 8.765625 -4.421875 8.046875 -3.703125 C 7.335938 -2.992188 6.550781 -2.460938 5.6875 -2.109375 C 4.832031 -1.753906 3.847656 -1.65625 2.734375 -1.8125 C 1.984375 -1.925781 1.421875 -2.175781 1.046875 -2.5625 C 0.671875 -2.945312 0.390625 -3.492188 0.203125 -4.203125 C -0.0976562 -5.316406 -0.164062 -6.460938 0 -7.640625 C 0.132812 -8.316406 0.554688 -8.671875 1.265625 -8.703125 C 1.898438 -8.703125 2.242188 -8.414062 2.296875 -7.84375 C 2.316406 -7.375 2.316406 -6.910156 2.296875 -6.453125 C 2.296875 -6.390625 2.296875 -6.332031 2.296875 -6.28125 C 2.265625 -5.019531 2.472656 -4.15625 2.921875 -3.6875 C 3.367188 -3.226562 3.945312 -3.109375 4.65625 -3.328125 C 5.375 -3.546875 6.140625 -4.050781 6.953125 -4.84375 C 7.054688 -4.945312 7.179688 -5.082031 7.328125 -5.25 C 7.484375 -5.425781 7.648438 -5.601562 7.828125 -5.78125 C 8.085938 -6.050781 8.300781 -6.273438 8.46875 -6.453125 C 8.976562 -6.960938 9.503906 -7.113281 10.046875 -6.90625 Z M 1.09375 -10.734375 C 0.53125 -10.765625 0.207031 -11.066406 0.125 -11.640625 C 0.0625 -12.078125 0.128906 -12.5 0.328125 -12.90625 C 0.515625 -13.257812 0.8125 -13.5 1.21875 -13.625 C 1.632812 -13.757812 2.03125 -13.722656 2.40625 -13.515625 C 2.539062 -13.441406 2.632812 -13.335938 2.6875 -13.203125 C 2.75 -13.066406 2.773438 -12.960938 2.765625 -12.890625 C 2.742188 -11.429688 2.1875 -10.710938 1.09375 -10.734375 Z M 1.09375 -10.734375 "/></g></g></g><g fill="#e86962" fill-opacity="1"><g transform="translate(153.723278, 190.064181)"><g><path d="M 12.640625 -6.9375 C 12.734375 -6.914062 12.796875 -6.882812 12.828125 -6.84375 C 12.867188 -6.800781 12.914062 -6.722656 12.96875 -6.609375 C 13 -6.484375 12.953125 -6.335938 12.828125 -6.171875 C 12.710938 -6.015625 12.609375 -5.882812 12.515625 -5.78125 C 11.753906 -5.070312 10.867188 -4.648438 9.859375 -4.515625 C 9.285156 -4.429688 8.707031 -4.410156 8.125 -4.453125 C 7.539062 -4.492188 6.972656 -4.632812 6.421875 -4.875 C 6.015625 -5.070312 5.632812 -5.007812 5.28125 -4.6875 C 4.550781 -4.03125 3.789062 -3.394531 3 -2.78125 C 2.601562 -2.476562 2.179688 -2.222656 1.734375 -2.015625 C 1.285156 -1.816406 0.800781 -1.707031 0.28125 -1.6875 C -1.257812 -1.707031 -1.867188 -2.457031 -1.546875 -3.9375 C -1.523438 -4 -1.5 -4.046875 -1.46875 -4.078125 C -1.03125 -5.273438 -0.453125 -6.351562 0.265625 -7.3125 C 0.992188 -8.28125 1.914062 -9.082031 3.03125 -9.71875 C 3.769531 -10.15625 4.5625 -10.320312 5.40625 -10.21875 C 5.625 -10.175781 5.835938 -10.09375 6.046875 -9.96875 C 6.296875 -9.851562 6.394531 -9.660156 6.34375 -9.390625 C 6.320312 -9.304688 6.28125 -9.234375 6.21875 -9.171875 C 6.164062 -9.117188 6.109375 -9.0625 6.046875 -9 C 6.003906 -8.957031 5.953125 -8.925781 5.890625 -8.90625 C 5.835938 -8.894531 5.773438 -8.890625 5.703125 -8.890625 C 5.097656 -8.867188 4.578125 -8.6875 4.140625 -8.34375 C 3.703125 -8.007812 3.304688 -7.632812 2.953125 -7.21875 C 2.546875 -6.757812 2.171875 -6.257812 1.828125 -5.71875 C 1.484375 -5.175781 1.203125 -4.53125 0.984375 -3.78125 C 1.785156 -4.25 2.421875 -4.710938 2.890625 -5.171875 C 2.984375 -5.273438 3.082031 -5.367188 3.1875 -5.453125 C 3.269531 -5.535156 3.351562 -5.609375 3.4375 -5.671875 C 3.84375 -6.046875 4.265625 -6.375 4.703125 -6.65625 C 5.210938 -6.945312 5.710938 -7.09375 6.203125 -7.09375 C 6.703125 -7.09375 7.1875 -6.890625 7.65625 -6.484375 C 8.300781 -5.910156 8.925781 -5.6875 9.53125 -5.8125 C 10.132812 -5.9375 10.703125 -6.148438 11.234375 -6.453125 C 11.765625 -6.773438 12.234375 -6.9375 12.640625 -6.9375 Z M 12.640625 -6.9375 "/></g></g></g><g fill="#e86962" fill-opacity="1"><g transform="translate(165.403518, 190.064181)"><g/></g></g><g fill="#e86962" fill-opacity="1"><g transform="translate(176.311511, 190.064181)"><g><path d="M 12.828125 8.484375 C 13.296875 8.503906 13.757812 8.488281 14.21875 8.4375 C 14.6875 8.382812 15.132812 8.265625 15.5625 8.078125 C 16.84375 7.472656 17.28125 6.515625 16.875 5.203125 C 16.644531 4.523438 16.296875 3.910156 15.828125 3.359375 C 15.285156 2.660156 14.691406 2.015625 14.046875 1.421875 C 13.398438 0.835938 12.734375 0.273438 12.046875 -0.265625 C 11.660156 -0.546875 11.296875 -0.535156 10.953125 -0.234375 C 9.890625 0.554688 8.9375 1.4375 8.09375 2.40625 C 7.726562 2.851562 7.414062 3.335938 7.15625 3.859375 C 6.601562 5.160156 6.875 6.253906 7.96875 7.140625 C 8.5 7.546875 9.082031 7.84375 9.71875 8.03125 C 10.726562 8.332031 11.765625 8.484375 12.828125 8.484375 Z M 13.46875 -1.984375 C 13.507812 -1.804688 13.582031 -1.660156 13.6875 -1.546875 C 13.800781 -1.429688 13.921875 -1.335938 14.046875 -1.265625 C 14.128906 -1.203125 14.210938 -1.140625 14.296875 -1.078125 C 14.609375 -0.796875 14.925781 -0.503906 15.25 -0.203125 C 15.863281 0.328125 16.453125 0.851562 17.015625 1.375 C 17.847656 2.144531 18.515625 3.035156 19.015625 4.046875 C 19.523438 5.054688 19.65625 6.035156 19.40625 6.984375 C 19.164062 7.941406 18.421875 8.703125 17.171875 9.265625 C 16.648438 9.503906 16.09375 9.664062 15.5 9.75 C 14.375 9.882812 13.238281 9.9375 12.09375 9.90625 C 10.945312 9.882812 9.816406 9.722656 8.703125 9.421875 C 8.160156 9.273438 7.632812 9.082031 7.125 8.84375 C 6.625 8.601562 6.171875 8.289062 5.765625 7.90625 C 4.316406 6.59375 4.015625 5.050781 4.859375 3.28125 C 5.191406 2.601562 5.625 1.976562 6.15625 1.40625 C 7.007812 0.507812 7.921875 -0.316406 8.890625 -1.078125 C 9.367188 -1.460938 9.601562 -1.738281 9.59375 -1.90625 C 9.59375 -2.082031 9.316406 -2.332031 8.765625 -2.65625 C 7.773438 -3.320312 6.773438 -3.984375 5.765625 -4.640625 C 5.234375 -4.972656 4.703125 -5.316406 4.171875 -5.671875 C 3.859375 -5.890625 3.539062 -6.097656 3.21875 -6.296875 C 2.40625 -6.804688 1.601562 -7.34375 0.8125 -7.90625 C -0.0820312 -8.539062 -0.914062 -9.226562 -1.6875 -9.96875 C -2.46875 -10.71875 -3.148438 -11.5625 -3.734375 -12.5 C -4.953125 -14.457031 -5.40625 -16.457031 -5.09375 -18.5 C -4.78125 -20.539062 -3.890625 -22.507812 -2.421875 -24.40625 C -0.953125 -26.300781 0.890625 -28.003906 3.109375 -29.515625 C 5.335938 -31.035156 7.753906 -32.265625 10.359375 -33.203125 C 12.960938 -34.140625 15.550781 -34.675781 18.125 -34.8125 C 20.707031 -34.957031 23.078125 -34.59375 25.234375 -33.71875 C 27.398438 -32.851562 29.179688 -31.363281 30.578125 -29.25 C 30.828125 -28.851562 31.035156 -28.441406 31.203125 -28.015625 C 31.378906 -27.585938 31.46875 -27.128906 31.46875 -26.640625 C 31.46875 -26.148438 31.242188 -25.84375 30.796875 -25.71875 C 30.492188 -25.644531 30.21875 -25.648438 29.96875 -25.734375 C 29.71875 -25.828125 29.523438 -25.976562 29.390625 -26.1875 C 29.378906 -26.238281 29.363281 -26.304688 29.34375 -26.390625 C 29.320312 -26.429688 29.3125 -26.472656 29.3125 -26.515625 C 28.382812 -29.078125 27.007812 -30.90625 25.1875 -32 C 23.363281 -33.09375 21.300781 -33.601562 19 -33.53125 C 16.707031 -33.46875 14.363281 -32.96875 11.96875 -32.03125 C 9.570312 -31.101562 7.320312 -29.914062 5.21875 -28.46875 C 3.113281 -27.03125 1.347656 -25.476562 -0.078125 -23.8125 C -1.503906 -22.15625 -2.390625 -20.546875 -2.734375 -18.984375 C -3.078125 -17.035156 -2.742188 -15.238281 -1.734375 -13.59375 C -0.929688 -12.1875 0.0976562 -10.988281 1.359375 -10 C 2.328125 -9.238281 3.316406 -8.515625 4.328125 -7.828125 C 5.242188 -7.234375 6.144531 -6.648438 7.03125 -6.078125 C 8.269531 -5.296875 9.484375 -4.503906 10.671875 -3.703125 C 11.015625 -3.453125 11.332031 -3.335938 11.625 -3.359375 C 11.914062 -3.378906 12.222656 -3.5 12.546875 -3.71875 C 14.148438 -4.6875 15.726562 -5.570312 17.28125 -6.375 C 18.84375 -7.1875 19.707031 -7.410156 19.875 -7.046875 C 20.050781 -6.691406 19.804688 -6.269531 19.140625 -5.78125 C 17.578125 -4.945312 16.082031 -4.019531 14.65625 -3 C 14.570312 -2.957031 14.492188 -2.90625 14.421875 -2.84375 C 14.023438 -2.632812 13.707031 -2.347656 13.46875 -1.984375 Z M 13.46875 -1.984375 "/></g></g></g><g fill="#e86962" fill-opacity="1"><g transform="translate(194.114568, 190.064181)"><g><path d="M 10.921875 -6.8125 C 11.128906 -6.976562 11.28125 -7.035156 11.375 -6.984375 C 11.476562 -6.929688 11.550781 -6.828125 11.59375 -6.671875 C 11.632812 -6.523438 11.65625 -6.378906 11.65625 -6.234375 C 11.632812 -5.960938 11.578125 -5.695312 11.484375 -5.4375 C 11.398438 -5.1875 11.335938 -5.019531 11.296875 -4.9375 C 11.265625 -4.914062 11.25 -4.90625 11.25 -4.90625 C 10.976562 -4.195312 10.539062 -3.5 9.9375 -2.8125 C 9.34375 -2.125 8.640625 -1.566406 7.828125 -1.140625 C 7.023438 -0.722656 6.164062 -0.539062 5.25 -0.59375 C 3.976562 -0.738281 2.960938 -1.226562 2.203125 -2.0625 C 1.441406 -2.90625 0.867188 -3.90625 0.484375 -5.0625 C 0.109375 -6.226562 -0.144531 -7.378906 -0.28125 -8.515625 C -0.613281 -11.304688 -0.710938 -14.117188 -0.578125 -16.953125 C -0.546875 -17.640625 -0.523438 -18.328125 -0.515625 -19.015625 C -0.515625 -19.253906 -0.515625 -19.492188 -0.515625 -19.734375 C -0.515625 -20.191406 -0.722656 -20.421875 -1.140625 -20.421875 C -1.597656 -20.421875 -2.046875 -20.425781 -2.484375 -20.4375 C -2.972656 -20.4375 -3.46875 -20.4375 -3.96875 -20.4375 C -4.03125 -20.4375 -4.097656 -20.4375 -4.171875 -20.4375 C -4.523438 -20.40625 -4.851562 -20.46875 -5.15625 -20.625 C -5.289062 -20.6875 -5.40625 -20.769531 -5.5 -20.875 C -5.59375 -20.988281 -5.640625 -21.128906 -5.640625 -21.296875 C -5.617188 -21.453125 -5.550781 -21.578125 -5.4375 -21.671875 C -5.332031 -21.765625 -5.195312 -21.8125 -5.03125 -21.8125 C -4.445312 -21.820312 -3.859375 -21.828125 -3.265625 -21.828125 C -2.910156 -21.828125 -2.554688 -21.828125 -2.203125 -21.828125 C -1.742188 -21.828125 -1.28125 -21.851562 -0.8125 -21.90625 C -0.550781 -21.925781 -0.390625 -22.078125 -0.328125 -22.359375 C -0.296875 -22.703125 -0.265625 -23.039062 -0.234375 -23.375 C -0.160156 -24.488281 -0.0820312 -25.601562 0 -26.71875 C 0.0625 -27.488281 0.117188 -28.25 0.171875 -29 C 0.171875 -29.019531 0.171875 -29.039062 0.171875 -29.0625 C 0.171875 -29.21875 0.1875 -29.367188 0.21875 -29.515625 C 0.375 -30.160156 0.804688 -30.460938 1.515625 -30.421875 C 2.117188 -30.378906 2.457031 -30.046875 2.53125 -29.421875 C 2.539062 -29.015625 2.539062 -28.601562 2.53125 -28.1875 C 2.53125 -28.019531 2.53125 -27.847656 2.53125 -27.671875 C 2.53125 -27.671875 2.519531 -27.671875 2.5 -27.671875 C 2.46875 -27.203125 2.441406 -26.734375 2.421875 -26.265625 C 2.335938 -25.210938 2.28125 -24.148438 2.25 -23.078125 C 2.207031 -22.515625 2.253906 -22.160156 2.390625 -22.015625 C 2.535156 -21.878906 2.910156 -21.816406 3.515625 -21.828125 C 4.660156 -21.816406 5.796875 -21.8125 6.921875 -21.8125 C 7.734375 -21.8125 8.546875 -21.800781 9.359375 -21.78125 C 9.429688 -21.78125 9.507812 -21.78125 9.59375 -21.78125 C 9.789062 -21.800781 9.976562 -21.796875 10.15625 -21.765625 C 10.34375 -21.734375 10.53125 -21.664062 10.71875 -21.5625 C 10.769531 -21.507812 10.820312 -21.453125 10.875 -21.390625 C 10.925781 -21.328125 10.96875 -21.242188 11 -21.140625 C 11 -21.046875 10.960938 -20.960938 10.890625 -20.890625 C 10.828125 -20.828125 10.769531 -20.78125 10.71875 -20.75 C 10.351562 -20.539062 9.96875 -20.457031 9.5625 -20.5 C 9.5 -20.5 9.429688 -20.5 9.359375 -20.5 C 8.140625 -20.5 6.929688 -20.488281 5.734375 -20.46875 C 5.066406 -20.445312 4.390625 -20.4375 3.703125 -20.4375 C 3.660156 -20.4375 3.625 -20.4375 3.59375 -20.4375 C 3.28125 -20.4375 2.96875 -20.429688 2.65625 -20.421875 C 2.320312 -20.367188 2.125 -20.179688 2.0625 -19.859375 C 2.019531 -19.679688 2 -19.503906 2 -19.328125 C 1.925781 -17.546875 1.894531 -15.757812 1.90625 -13.96875 C 1.914062 -12.175781 2.03125 -10.398438 2.25 -8.640625 C 2.4375 -7.222656 2.804688 -5.863281 3.359375 -4.5625 C 3.671875 -3.851562 4.039062 -3.296875 4.46875 -2.890625 C 4.90625 -2.492188 5.394531 -2.328125 5.9375 -2.390625 C 6.957031 -2.554688 7.742188 -2.914062 8.296875 -3.46875 C 8.847656 -4.019531 9.320312 -4.617188 9.71875 -5.265625 C 10.082031 -5.890625 10.484375 -6.40625 10.921875 -6.8125 Z M 10.921875 -6.8125 "/></g></g></g><g fill="#e86962" fill-opacity="1"><g transform="translate(204.195153, 190.064181)"><g><path d="M 12.640625 -6.9375 C 12.734375 -6.914062 12.796875 -6.882812 12.828125 -6.84375 C 12.867188 -6.800781 12.914062 -6.722656 12.96875 -6.609375 C 13 -6.484375 12.953125 -6.335938 12.828125 -6.171875 C 12.710938 -6.015625 12.609375 -5.882812 12.515625 -5.78125 C 11.753906 -5.070312 10.867188 -4.648438 9.859375 -4.515625 C 9.285156 -4.429688 8.707031 -4.410156 8.125 -4.453125 C 7.539062 -4.492188 6.972656 -4.632812 6.421875 -4.875 C 6.015625 -5.070312 5.632812 -5.007812 5.28125 -4.6875 C 4.550781 -4.03125 3.789062 -3.394531 3 -2.78125 C 2.601562 -2.476562 2.179688 -2.222656 1.734375 -2.015625 C 1.285156 -1.816406 0.800781 -1.707031 0.28125 -1.6875 C -1.257812 -1.707031 -1.867188 -2.457031 -1.546875 -3.9375 C -1.523438 -4 -1.5 -4.046875 -1.46875 -4.078125 C -1.03125 -5.273438 -0.453125 -6.351562 0.265625 -7.3125 C 0.992188 -8.28125 1.914062 -9.082031 3.03125 -9.71875 C 3.769531 -10.15625 4.5625 -10.320312 5.40625 -10.21875 C 5.625 -10.175781 5.835938 -10.09375 6.046875 -9.96875 C 6.296875 -9.851562 6.394531 -9.660156 6.34375 -9.390625 C 6.320312 -9.304688 6.28125 -9.234375 6.21875 -9.171875 C 6.164062 -9.117188 6.109375 -9.0625 6.046875 -9 C 6.003906 -8.957031 5.953125 -8.925781 5.890625 -8.90625 C 5.835938 -8.894531 5.773438 -8.890625 5.703125 -8.890625 C 5.097656 -8.867188 4.578125 -8.6875 4.140625 -8.34375 C 3.703125 -8.007812 3.304688 -7.632812 2.953125 -7.21875 C 2.546875 -6.757812 2.171875 -6.257812 1.828125 -5.71875 C 1.484375 -5.175781 1.203125 -4.53125 0.984375 -3.78125 C 1.785156 -4.25 2.421875 -4.710938 2.890625 -5.171875 C 2.984375 -5.273438 3.082031 -5.367188 3.1875 -5.453125 C 3.269531 -5.535156 3.351562 -5.609375 3.4375 -5.671875 C 3.84375 -6.046875 4.265625 -6.375 4.703125 -6.65625 C 5.210938 -6.945312 5.710938 -7.09375 6.203125 -7.09375 C 6.703125 -7.09375 7.1875 -6.890625 7.65625 -6.484375 C 8.300781 -5.910156 8.925781 -5.6875 9.53125 -5.8125 C 10.132812 -5.9375 10.703125 -6.148438 11.234375 -6.453125 C 11.765625 -6.773438 12.234375 -6.9375 12.640625 -6.9375 Z M 12.640625 -6.9375 "/></g></g></g><g fill="#e86962" fill-opacity="1"><g transform="translate(215.875393, 190.064181)"><g><path d="M 18.203125 -6.484375 C 18.203125 -6.484375 18.210938 -6.484375 18.234375 -6.484375 C 18.335938 -6.460938 18.4375 -6.425781 18.53125 -6.375 C 18.632812 -6.320312 18.703125 -6.222656 18.734375 -6.078125 C 18.785156 -5.828125 18.710938 -5.625 18.515625 -5.46875 C 17.679688 -4.894531 16.789062 -4.441406 15.84375 -4.109375 C 14.988281 -3.835938 14.125 -3.660156 13.25 -3.578125 C 12.382812 -3.503906 11.507812 -3.507812 10.625 -3.59375 C 9.46875 -3.71875 8.535156 -4.265625 7.828125 -5.234375 C 7.609375 -5.546875 7.382812 -5.851562 7.15625 -6.15625 C 6.9375 -6.457031 6.707031 -6.769531 6.46875 -7.09375 C 6.269531 -7.351562 6.015625 -7.382812 5.703125 -7.1875 C 5.335938 -6.914062 5.007812 -6.613281 4.71875 -6.28125 C 4.425781 -5.945312 4.148438 -5.597656 3.890625 -5.234375 C 3.867188 -5.191406 3.847656 -5.15625 3.828125 -5.125 C 3.722656 -5 3.617188 -4.863281 3.515625 -4.71875 C 3.398438 -4.5 3.265625 -4.296875 3.109375 -4.109375 C 2.835938 -3.804688 2.488281 -3.609375 2.0625 -3.515625 C 1.644531 -3.429688 1.242188 -3.46875 0.859375 -3.625 C 0.566406 -3.769531 0.378906 -3.984375 0.296875 -4.265625 C 0.046875 -5.304688 -0.109375 -6.347656 -0.171875 -7.390625 C -0.171875 -7.960938 0.0859375 -8.300781 0.609375 -8.40625 C 1.210938 -8.539062 1.648438 -8.347656 1.921875 -7.828125 C 1.953125 -7.742188 1.976562 -7.640625 2 -7.515625 C 2.03125 -7.398438 2.066406 -7.285156 2.109375 -7.171875 C 2.160156 -7.054688 2.257812 -6.960938 2.40625 -6.890625 C 2.570312 -7.023438 2.722656 -7.148438 2.859375 -7.265625 C 3.179688 -7.554688 3.492188 -7.832031 3.796875 -8.09375 C 4.160156 -8.394531 4.546875 -8.609375 4.953125 -8.734375 C 5.359375 -8.867188 5.789062 -8.9375 6.25 -8.9375 C 7.320312 -8.9375 8.171875 -8.515625 8.796875 -7.671875 C 8.921875 -7.484375 9.046875 -7.304688 9.171875 -7.140625 C 9.453125 -6.722656 9.742188 -6.320312 10.046875 -5.9375 C 10.523438 -5.3125 11.171875 -4.988281 11.984375 -4.96875 C 12.816406 -4.925781 13.609375 -5 14.359375 -5.1875 C 15.117188 -5.375 15.851562 -5.664062 16.5625 -6.0625 C 16.59375 -6.070312 16.625 -6.09375 16.65625 -6.125 C 16.894531 -6.257812 17.140625 -6.367188 17.390625 -6.453125 C 17.648438 -6.535156 17.921875 -6.546875 18.203125 -6.484375 Z M 18.203125 -6.484375 "/></g></g></g><g fill="#e86962" fill-opacity="1"><g transform="translate(232.892413, 190.064181)"><g><path d="M 2.9375 -5.390625 C 2.914062 -5.390625 2.898438 -5.390625 2.890625 -5.390625 C 2.890625 -5.390625 2.894531 -5.390625 2.90625 -5.390625 C 2.90625 -5.390625 2.914062 -5.390625 2.9375 -5.390625 Z M 12.59375 -6.78125 C 12.695312 -6.851562 12.859375 -6.929688 13.078125 -7.015625 C 13.296875 -7.097656 13.503906 -7.144531 13.703125 -7.15625 C 13.910156 -7.175781 14.054688 -7.101562 14.140625 -6.9375 C 14.203125 -6.820312 14.21875 -6.707031 14.1875 -6.59375 C 14.15625 -6.476562 14.097656 -6.378906 14.015625 -6.296875 C 13.503906 -5.742188 12.71875 -5.1875 11.65625 -4.625 C 10.59375 -4.0625 9.492188 -3.5625 8.359375 -3.125 C 7.222656 -2.695312 6.273438 -2.421875 5.515625 -2.296875 C 4.648438 -2.140625 3.773438 -2.097656 2.890625 -2.171875 C 1.785156 -2.316406 0.96875 -2.769531 0.4375 -3.53125 C -0.09375 -4.300781 -0.304688 -5.164062 -0.203125 -6.125 C -0.046875 -7.1875 0.4375 -8.03125 1.25 -8.65625 C 2.070312 -9.289062 3.007812 -9.523438 4.0625 -9.359375 C 4.707031 -9.273438 5.296875 -9.039062 5.828125 -8.65625 C 6.390625 -8.195312 6.640625 -7.671875 6.578125 -7.078125 C 6.523438 -6.484375 6.171875 -6.023438 5.515625 -5.703125 C 5.171875 -5.535156 4.789062 -5.429688 4.375 -5.390625 C 3.96875 -5.347656 3.488281 -5.347656 2.9375 -5.390625 C 2.9375 -5.390625 2.921875 -5.390625 2.890625 -5.390625 C 2.867188 -5.390625 2.828125 -5.390625 2.765625 -5.390625 C 2.703125 -5.390625 2.640625 -5.390625 2.578125 -5.390625 C 2.410156 -5.390625 2.300781 -5.34375 2.25 -5.25 C 2.195312 -5.164062 2.195312 -5.050781 2.25 -4.90625 C 2.550781 -4.15625 3.144531 -3.757812 4.03125 -3.71875 C 4.914062 -3.675781 5.921875 -3.84375 7.046875 -4.21875 C 8.179688 -4.59375 9.253906 -5.03125 10.265625 -5.53125 C 11.273438 -6.03125 12.050781 -6.445312 12.59375 -6.78125 Z M 2.90625 -7.671875 C 2.769531 -7.566406 2.675781 -7.445312 2.625 -7.3125 C 2.570312 -7.1875 2.539062 -7.078125 2.53125 -6.984375 C 2.53125 -6.890625 2.546875 -6.832031 2.578125 -6.8125 C 2.617188 -6.789062 2.734375 -6.765625 2.921875 -6.734375 C 3.117188 -6.703125 3.332031 -6.695312 3.5625 -6.71875 C 3.800781 -6.75 3.992188 -6.800781 4.140625 -6.875 C 4.296875 -6.957031 4.347656 -7.097656 4.296875 -7.296875 C 4.203125 -7.578125 4.007812 -7.753906 3.71875 -7.828125 C 3.425781 -7.910156 3.15625 -7.859375 2.90625 -7.671875 Z M 2.90625 -7.671875 "/></g></g></g><g fill="#e86962" fill-opacity="1"><g transform="translate(245.634493, 190.064181)"><g><path d="M 12.171875 -6.90625 C 12.515625 -6.84375 12.703125 -6.65625 12.734375 -6.34375 C 12.773438 -6.03125 12.617188 -5.710938 12.265625 -5.390625 C 11.910156 -5.085938 11.570312 -4.800781 11.25 -4.53125 C 10.445312 -3.875 9.582031 -3.164062 8.65625 -2.40625 C 7.925781 -1.820312 7.257812 -1.175781 6.65625 -0.46875 C 6.195312 0.0078125 5.859375 0.550781 5.640625 1.15625 C 5.398438 1.945312 4.992188 2.65625 4.421875 3.28125 C 4.097656 3.644531 3.726562 3.867188 3.3125 3.953125 C 2.90625 4.035156 2.476562 4.015625 2.03125 3.890625 C 1.8125 3.835938 1.644531 3.722656 1.53125 3.546875 C 1.414062 3.367188 1.394531 3.171875 1.46875 2.953125 C 1.539062 2.609375 1.664062 2.285156 1.84375 1.984375 C 2.113281 1.597656 2.398438 1.222656 2.703125 0.859375 C 2.722656 0.816406 2.75 0.78125 2.78125 0.75 C 3.84375 -0.570312 3.910156 -1.921875 2.984375 -3.296875 C 2.753906 -3.597656 2.5 -3.890625 2.21875 -4.171875 C 2.132812 -4.273438 2.039062 -4.378906 1.9375 -4.484375 C 1.78125 -4.679688 1.609375 -4.875 1.421875 -5.0625 C 1.078125 -5.414062 0.742188 -5.796875 0.421875 -6.203125 C -0.484375 -7.484375 -0.421875 -8.707031 0.609375 -9.875 C 1.492188 -10.9375 2.601562 -11.664062 3.9375 -12.0625 C 4.769531 -12.300781 5.570312 -12.226562 6.34375 -11.84375 C 7.09375 -11.4375 7.4375 -10.8125 7.375 -9.96875 C 7.289062 -9.40625 7.007812 -9.070312 6.53125 -8.96875 C 5.90625 -8.84375 5.457031 -9.035156 5.1875 -9.546875 C 5.101562 -9.742188 5.039062 -9.914062 5 -10.0625 C 4.96875 -10.21875 4.921875 -10.335938 4.859375 -10.421875 C 4.796875 -10.503906 4.691406 -10.53125 4.546875 -10.5 C 4.410156 -10.46875 4.191406 -10.363281 3.890625 -10.1875 C 3.421875 -9.90625 3.015625 -9.539062 2.671875 -9.09375 C 2.117188 -8.425781 2.085938 -7.71875 2.578125 -6.96875 C 2.742188 -6.726562 2.925781 -6.503906 3.125 -6.296875 C 3.351562 -6.054688 3.566406 -5.816406 3.765625 -5.578125 C 4.171875 -5.171875 4.554688 -4.753906 4.921875 -4.328125 C 5.285156 -3.910156 5.597656 -3.457031 5.859375 -2.96875 C 6.066406 -3 6.421875 -3.1875 6.921875 -3.53125 C 7.429688 -3.882812 7.984375 -4.285156 8.578125 -4.734375 C 9.171875 -5.191406 9.707031 -5.601562 10.1875 -5.96875 C 10.59375 -6.289062 10.878906 -6.515625 11.046875 -6.640625 C 11.179688 -6.734375 11.347656 -6.804688 11.546875 -6.859375 C 11.753906 -6.910156 11.960938 -6.925781 12.171875 -6.90625 Z M 12.171875 -6.90625 "/></g></g></g><g fill="#e86962" fill-opacity="1"><g transform="translate(256.514905, 190.064181)"><g><path d="M 10.21875 -6.328125 C 10.269531 -6.347656 10.300781 -6.367188 10.3125 -6.390625 C 10.539062 -6.515625 10.789062 -6.644531 11.0625 -6.78125 C 11.34375 -6.925781 11.59375 -6.992188 11.8125 -6.984375 C 12.03125 -6.972656 12.15625 -6.820312 12.1875 -6.53125 C 12.175781 -6.113281 11.722656 -5.664062 10.828125 -5.1875 C 9.941406 -4.71875 8.847656 -4.269531 7.546875 -3.84375 C 6.253906 -3.414062 5.003906 -3.070312 3.796875 -2.8125 C 2.597656 -2.5625 1.695312 -2.453125 1.09375 -2.484375 C 0.40625 -2.554688 -0.0976562 -2.804688 -0.421875 -3.234375 C -0.742188 -3.660156 -0.863281 -4.226562 -0.78125 -4.9375 C -0.664062 -5.695312 -0.320312 -6.472656 0.25 -7.265625 C 0.832031 -8.054688 1.59375 -8.679688 2.53125 -9.140625 C 3.46875 -9.597656 4.515625 -9.722656 5.671875 -9.515625 C 5.847656 -9.492188 6 -9.425781 6.125 -9.3125 C 6.1875 -9.257812 6.242188 -9.191406 6.296875 -9.109375 C 6.347656 -9.035156 6.363281 -8.960938 6.34375 -8.890625 C 6.320312 -8.640625 6.171875 -8.476562 5.890625 -8.40625 C 5.609375 -8.332031 5.332031 -8.296875 5.0625 -8.296875 C 5.007812 -8.296875 4.953125 -8.289062 4.890625 -8.28125 C 4.160156 -8.175781 3.445312 -7.753906 2.75 -7.015625 C 2.050781 -6.273438 1.660156 -5.472656 1.578125 -4.609375 C 1.578125 -4.242188 1.9375 -4.066406 2.65625 -4.078125 C 3.375 -4.097656 4.242188 -4.242188 5.265625 -4.515625 C 6.285156 -4.796875 7.253906 -5.101562 8.171875 -5.4375 C 9.097656 -5.769531 9.78125 -6.066406 10.21875 -6.328125 Z M 10.21875 -6.328125 "/></g></g></g><g fill="#e86962" fill-opacity="1"><g transform="translate(267.436688, 190.064181)"><g><path d="M 17.296875 -6.96875 C 17.421875 -6.945312 17.503906 -6.90625 17.546875 -6.84375 C 17.597656 -6.789062 17.632812 -6.703125 17.65625 -6.578125 C 17.65625 -6.273438 17.375 -5.925781 16.8125 -5.53125 C 16.257812 -5.132812 15.65625 -4.769531 15 -4.4375 C 14.34375 -4.101562 13.875 -3.894531 13.59375 -3.8125 C 12.65625 -3.445312 11.738281 -3.316406 10.84375 -3.421875 C 9.945312 -3.535156 9.164062 -4.007812 8.5 -4.84375 C 8.070312 -5.425781 7.753906 -5.691406 7.546875 -5.640625 C 7.335938 -5.597656 7.078125 -5.34375 6.765625 -4.875 C 6.441406 -4.34375 5.90625 -3.71875 5.15625 -3 C 4.3125 -2.375 3.519531 -2.078125 2.78125 -2.109375 C 2.039062 -2.148438 1.414062 -2.4375 0.90625 -2.96875 C 0.40625 -3.507812 0.0820312 -4.195312 -0.0625 -5.03125 C -0.21875 -5.875 -0.140625 -6.769531 0.171875 -7.71875 C 0.441406 -8.476562 1 -8.789062 1.84375 -8.65625 C 2.0625 -8.625 2.238281 -8.53125 2.375 -8.375 C 2.507812 -8.226562 2.546875 -8.046875 2.484375 -7.828125 C 2.304688 -7.066406 2.238281 -6.316406 2.28125 -5.578125 C 2.257812 -5.085938 2.347656 -4.628906 2.546875 -4.203125 C 2.753906 -3.835938 3.035156 -3.773438 3.390625 -4.015625 C 3.742188 -4.265625 4.097656 -4.617188 4.453125 -5.078125 C 4.804688 -5.546875 5.082031 -5.929688 5.28125 -6.234375 C 5.320312 -6.316406 5.363281 -6.390625 5.40625 -6.453125 C 5.476562 -6.554688 5.554688 -6.664062 5.640625 -6.78125 C 5.890625 -7.164062 6.148438 -7.53125 6.421875 -7.875 C 6.910156 -8.445312 7.535156 -8.691406 8.296875 -8.609375 C 8.929688 -8.566406 9.382812 -8.242188 9.65625 -7.640625 C 10.175781 -6.296875 10.945312 -5.554688 11.96875 -5.421875 C 12.988281 -5.296875 14.097656 -5.617188 15.296875 -6.390625 C 15.597656 -6.617188 15.910156 -6.789062 16.234375 -6.90625 C 16.554688 -7.03125 16.910156 -7.050781 17.296875 -6.96875 Z M 17.296875 -6.96875 "/></g></g></g><g fill="#e86962" fill-opacity="1"><g transform="translate(149.307447, 238.214706)"><g><path d="M 6.203125 -2.359375 C 6.203125 -1.578125 5.921875 -0.96875 5.359375 -0.53125 C 4.796875 -0.09375 4.03125 0.125 3.0625 0.125 C 2.007812 0.125 1.203125 -0.0078125 0.640625 -0.28125 L 0.640625 -1.28125 C 1.003906 -1.125 1.398438 -1 1.828125 -0.90625 C 2.253906 -0.820312 2.675781 -0.78125 3.09375 -0.78125 C 3.78125 -0.78125 4.296875 -0.910156 4.640625 -1.171875 C 4.992188 -1.429688 5.171875 -1.789062 5.171875 -2.25 C 5.171875 -2.5625 5.109375 -2.8125 4.984375 -3 C 4.859375 -3.195312 4.648438 -3.378906 4.359375 -3.546875 C 4.078125 -3.710938 3.640625 -3.898438 3.046875 -4.109375 C 2.222656 -4.410156 1.632812 -4.757812 1.28125 -5.15625 C 0.925781 -5.5625 0.75 -6.085938 0.75 -6.734375 C 0.75 -7.421875 1.003906 -7.960938 1.515625 -8.359375 C 2.035156 -8.765625 2.71875 -8.96875 3.5625 -8.96875 C 4.4375 -8.96875 5.242188 -8.804688 5.984375 -8.484375 L 5.65625 -7.59375 C 4.925781 -7.894531 4.21875 -8.046875 3.53125 -8.046875 C 2.988281 -8.046875 2.5625 -7.925781 2.25 -7.6875 C 1.945312 -7.457031 1.796875 -7.140625 1.796875 -6.734375 C 1.796875 -6.421875 1.851562 -6.164062 1.96875 -5.96875 C 2.082031 -5.78125 2.269531 -5.601562 2.53125 -5.4375 C 2.800781 -5.269531 3.210938 -5.085938 3.765625 -4.890625 C 4.691406 -4.554688 5.328125 -4.203125 5.671875 -3.828125 C 6.023438 -3.453125 6.203125 -2.960938 6.203125 -2.359375 Z M 6.203125 -2.359375 "/></g></g></g><g fill="#e86962" fill-opacity="1"><g transform="translate(159.404757, 238.214706)"><g><path d="M 8.890625 -4.4375 C 8.890625 -3.019531 8.53125 -1.90625 7.8125 -1.09375 C 7.101562 -0.28125 6.109375 0.125 4.828125 0.125 C 3.523438 0.125 2.519531 -0.269531 1.8125 -1.0625 C 1.101562 -1.863281 0.75 -2.992188 0.75 -4.453125 C 0.75 -5.890625 1.101562 -7.003906 1.8125 -7.796875 C 2.53125 -8.585938 3.539062 -8.984375 4.84375 -8.984375 C 6.113281 -8.984375 7.101562 -8.578125 7.8125 -7.765625 C 8.53125 -6.960938 8.890625 -5.851562 8.890625 -4.4375 Z M 1.84375 -4.4375 C 1.84375 -3.238281 2.097656 -2.328125 2.609375 -1.703125 C 3.117188 -1.085938 3.859375 -0.78125 4.828125 -0.78125 C 5.804688 -0.78125 6.546875 -1.085938 7.046875 -1.703125 C 7.546875 -2.316406 7.796875 -3.226562 7.796875 -4.4375 C 7.796875 -5.625 7.546875 -6.523438 7.046875 -7.140625 C 6.554688 -7.753906 5.820312 -8.0625 4.84375 -8.0625 C 3.863281 -8.0625 3.117188 -7.75 2.609375 -7.125 C 2.097656 -6.507812 1.84375 -5.613281 1.84375 -4.4375 Z M 1.84375 -4.4375 "/></g></g></g><g fill="#e86962" fill-opacity="1"><g transform="translate(172.350776, 238.214706)"><g><path d="M 6.828125 -6.265625 C 6.828125 -5.367188 6.519531 -4.679688 5.90625 -4.203125 C 5.289062 -3.722656 4.414062 -3.484375 3.28125 -3.484375 L 2.25 -3.484375 L 2.25 0 L 1.21875 0 L 1.21875 -8.84375 L 3.515625 -8.84375 C 5.722656 -8.84375 6.828125 -7.984375 6.828125 -6.265625 Z M 2.25 -4.359375 L 3.171875 -4.359375 C 4.078125 -4.359375 4.734375 -4.503906 5.140625 -4.796875 C 5.554688 -5.097656 5.765625 -5.570312 5.765625 -6.21875 C 5.765625 -6.800781 5.570312 -7.234375 5.1875 -7.515625 C 4.800781 -7.804688 4.203125 -7.953125 3.390625 -7.953125 L 2.25 -7.953125 Z M 2.25 -4.359375 "/></g></g></g><g fill="#e86962" fill-opacity="1"><g transform="translate(183.107347, 238.214706)"><g><path d="M 2.25 -3.671875 L 2.25 0 L 1.21875 0 L 1.21875 -8.84375 L 3.640625 -8.84375 C 4.722656 -8.84375 5.523438 -8.632812 6.046875 -8.21875 C 6.566406 -7.800781 6.828125 -7.175781 6.828125 -6.34375 C 6.828125 -5.175781 6.234375 -4.382812 5.046875 -3.96875 L 7.453125 0 L 6.234375 0 L 4.09375 -3.671875 Z M 2.25 -4.5625 L 3.65625 -4.5625 C 4.382812 -4.5625 4.914062 -4.703125 5.25 -4.984375 C 5.59375 -5.273438 5.765625 -5.710938 5.765625 -6.296875 C 5.765625 -6.878906 5.585938 -7.296875 5.234375 -7.546875 C 4.890625 -7.804688 4.335938 -7.9375 3.578125 -7.9375 L 2.25 -7.9375 Z M 2.25 -4.5625 "/></g></g></g><g fill="#e86962" fill-opacity="1"><g transform="translate(194.063502, 238.214706)"><g><path d="M 6.78125 0 L 5.671875 -2.8125 L 2.125 -2.8125 L 1.046875 0 L 0 0 L 3.5 -8.875 L 4.359375 -8.875 L 7.84375 0 Z M 5.359375 -3.734375 L 4.328125 -6.484375 C 4.191406 -6.828125 4.054688 -7.25 3.921875 -7.75 C 3.828125 -7.363281 3.695312 -6.941406 3.53125 -6.484375 L 2.5 -3.734375 Z M 5.359375 -3.734375 "/></g></g></g><g fill="#e86962" fill-opacity="1"><g transform="translate(205.201103, 238.214706)"><g><path d="M 8.125 0 L 6.953125 0 L 2.125 -7.421875 L 2.0625 -7.421875 C 2.132812 -6.546875 2.171875 -5.75 2.171875 -5.03125 L 2.171875 0 L 1.21875 0 L 1.21875 -8.84375 L 2.375 -8.84375 L 7.203125 -1.453125 L 7.25 -1.453125 C 7.238281 -1.554688 7.21875 -1.90625 7.1875 -2.5 C 7.164062 -3.09375 7.15625 -3.515625 7.15625 -3.765625 L 7.15625 -8.84375 L 8.125 -8.84375 Z M 8.125 0 "/></g></g></g><g fill="#e86962" fill-opacity="1"><g transform="translate(217.838658, 238.214706)"><g><path d="M 6.78125 0 L 5.671875 -2.8125 L 2.125 -2.8125 L 1.046875 0 L 0 0 L 3.5 -8.875 L 4.359375 -8.875 L 7.84375 0 Z M 5.359375 -3.734375 L 4.328125 -6.484375 C 4.191406 -6.828125 4.054688 -7.25 3.921875 -7.75 C 3.828125 -7.363281 3.695312 -6.941406 3.53125 -6.484375 L 2.5 -3.734375 Z M 3.890625 -9.5625 C 3.316406 -9.5625 2.875 -9.695312 2.5625 -9.96875 C 2.25 -10.25 2.070312 -10.648438 2.03125 -11.171875 L 2.671875 -11.171875 C 2.691406 -10.972656 2.742188 -10.816406 2.828125 -10.703125 C 2.910156 -10.597656 3.023438 -10.519531 3.171875 -10.46875 C 3.316406 -10.414062 3.5625 -10.390625 3.90625 -10.390625 C 4.3125 -10.390625 4.609375 -10.453125 4.796875 -10.578125 C 4.992188 -10.703125 5.113281 -10.898438 5.15625 -11.171875 L 5.796875 -11.171875 C 5.753906 -10.671875 5.5625 -10.273438 5.21875 -9.984375 C 4.882812 -9.703125 4.441406 -9.5625 3.890625 -9.5625 Z M 3.890625 -9.5625 "/></g></g></g></svg>