<svg xmlns="http://www.w3.org/2000/svg" xmlns:xlink="http://www.w3.org/1999/xlink" width="794" zoomAndPan="magnify" viewBox="0 0 595.5 842.249979" height="1123" preserveAspectRatio="xMidYMid meet" version="1.0"><defs><g/><clipPath id="695e193ba2"><path d="M 238.410156 94 L 243 94 L 243 793 L 238.410156 793 Z M 238.410156 94 " clip-rule="nonzero"/></clipPath><clipPath id="1d16f0d2e8"><path d="M 336 97 L 340.320312 97 L 340.320312 793 L 336 793 Z M 336 97 " clip-rule="nonzero"/></clipPath><clipPath id="df337926bb"><path d="M 222.585938 676 L 355.96875 676 L 355.96875 738 L 222.585938 738 Z M 222.585938 676 " clip-rule="nonzero"/></clipPath></defs><g clip-path="url(#695e193ba2)"><path fill="#e86962" d="M 242.371094 96.121094 L 242.371094 790.757812 C 242.371094 791.710938 241.566406 792.742188 240.386719 792.742188 C 239.210938 792.742188 238.40625 791.789062 238.40625 790.757812 L 238.40625 96.121094 C 238.40625 95.167969 239.210938 94.140625 240.386719 94.140625 C 241.566406 94.140625 242.371094 94.929688 242.371094 96.121094 Z M 242.371094 96.121094 " fill-opacity="1" fill-rule="nonzero"/></g><path fill="#e86962" d="M 261.769531 99.878906 L 261.769531 790.554688 C 261.769531 791.503906 260.96875 792.535156 259.789062 792.535156 C 258.609375 792.535156 257.804688 791.585938 257.804688 790.554688 L 257.804688 99.878906 C 257.804688 98.925781 258.609375 97.894531 259.789062 97.894531 C 260.96875 97.894531 261.769531 98.925781 261.769531 99.878906 Z M 261.769531 99.878906 " fill-opacity="1" fill-rule="nonzero"/><path fill="#e86962" d="M 281.328125 99.878906 L 281.328125 790.554688 C 281.328125 791.503906 280.523438 792.535156 279.34375 792.535156 C 278.164062 792.535156 277.363281 791.585938 277.363281 790.554688 L 277.363281 99.878906 C 277.363281 98.925781 278.164062 97.894531 279.34375 97.894531 C 280.523438 97.894531 281.328125 98.925781 281.328125 99.878906 Z M 281.328125 99.878906 " fill-opacity="1" fill-rule="nonzero"/><path fill="#e86962" d="M 300.882812 99.878906 L 300.882812 790.554688 C 300.882812 791.503906 300.078125 792.535156 298.902344 792.535156 C 297.722656 792.535156 296.917969 791.585938 296.917969 790.554688 L 296.917969 99.878906 C 296.917969 98.925781 297.722656 97.894531 298.902344 97.894531 C 300.027344 97.894531 300.882812 98.925781 300.882812 99.878906 Z M 300.882812 99.878906 " fill-opacity="1" fill-rule="nonzero"/><path fill="#e86962" d="M 320.4375 99.878906 L 320.4375 790.554688 C 320.4375 791.503906 319.636719 792.535156 318.457031 792.535156 C 317.277344 792.535156 316.472656 791.585938 316.472656 790.554688 L 316.472656 99.878906 C 316.472656 98.925781 317.277344 97.894531 318.457031 97.894531 C 319.636719 97.894531 320.4375 98.925781 320.4375 99.878906 Z M 320.4375 99.878906 " fill-opacity="1" fill-rule="nonzero"/><g clip-path="url(#1d16f0d2e8)"><path fill="#e86962" d="M 340.15625 99.878906 L 340.15625 790.554688 C 340.15625 791.503906 339.351562 792.535156 338.171875 792.535156 C 336.996094 792.535156 336.191406 791.585938 336.191406 790.554688 L 336.191406 99.878906 C 336.191406 98.925781 336.996094 97.894531 338.171875 97.894531 C 339.351562 97.894531 340.15625 98.925781 340.15625 99.878906 Z M 340.15625 99.878906 " fill-opacity="1" fill-rule="nonzero"/></g><path fill="#e86962" d="M 239.085938 794.847656 L 239.085938 786.382812 L 339.332031 786.382812 L 339.332031 794.847656 Z M 239.085938 794.847656 " fill-opacity="1" fill-rule="nonzero"/><path fill="#e86962" d="M 241.070312 778.292969 L 241.070312 773.84375 L 337.347656 773.84375 L 337.347656 778.292969 Z M 241.070312 778.292969 " fill-opacity="1" fill-rule="nonzero"/><g fill="#ffffff" fill-opacity="1"><g transform="translate(457.5406, 549.29014)"><g><path d="M 1.890625 3.421875 L 1.625 3.09375 C 2.53125 2.320312 3.125 1.71875 3.40625 1.28125 C 3.6875 0.851562 3.828125 0.378906 3.828125 -0.140625 C 3.828125 -0.660156 3.597656 -0.953125 3.140625 -1.015625 L 2.09375 -0.0625 C 1.75 -0.175781 1.441406 -0.382812 1.171875 -0.6875 C 0.898438 -0.988281 0.765625 -1.378906 0.765625 -1.859375 C 0.765625 -2.335938 0.9375 -2.742188 1.28125 -3.078125 C 1.625 -3.410156 2.097656 -3.578125 2.703125 -3.578125 C 3.316406 -3.578125 3.8125 -3.34375 4.1875 -2.875 C 4.570312 -2.40625 4.765625 -1.78125 4.765625 -1 C 4.765625 -0.226562 4.535156 0.515625 4.078125 1.234375 C 3.628906 1.953125 2.898438 2.679688 1.890625 3.421875 Z M 1.890625 3.421875 "/></g></g></g><g clip-path="url(#df337926bb)"><path fill="#e86962" d="M 295.96875 678.117188 C 294.828125 678.578125 293.738281 679.140625 292.703125 679.800781 C 291.664062 680.460938 290.695312 681.207031 289.792969 682.042969 C 288.890625 682.878906 288.074219 683.792969 287.335938 684.777344 C 286.601562 685.761719 285.960938 686.808594 285.417969 687.910156 C 284.871094 689.011719 284.429688 690.15625 284.09375 691.335938 C 283.757812 692.519531 283.53125 693.722656 283.414062 694.949219 C 283.296875 696.171875 283.289062 697.398438 283.394531 698.621094 C 283.503906 699.847656 283.71875 701.054688 284.042969 702.238281 C 284.652344 704.554688 285.648438 706.695312 287.023438 708.652344 C 285.851562 708.652344 284.765625 708.652344 283.59375 709.285156 C 282.417969 709.917969 279.257812 710.1875 277.085938 710.1875 C 275.183594 708.101562 273.105469 706.207031 270.855469 704.496094 C 268.269531 702.359375 265.441406 700.617188 262.375 699.265625 C 259.304688 697.914062 256.109375 697.007812 252.785156 696.546875 C 231.917969 694.558594 222.882812 701.15625 222.882812 706.304688 C 224.691406 717.777344 244.292969 716.242188 264.710938 713.984375 C 266.644531 715.628906 268.480469 717.375 270.222656 719.222656 L 273.382812 722.476562 C 274.5625 723.570312 275.796875 724.59375 277.085938 725.546875 C 282.003906 730.132812 287.636719 733.535156 293.980469 735.753906 C 295.617188 736.355469 297.300781 736.78125 299.023438 737.039062 C 300.75 737.292969 302.480469 737.367188 304.222656 737.269531 C 305.960938 737.167969 307.675781 736.890625 309.359375 736.4375 C 311.042969 735.984375 312.660156 735.367188 314.21875 734.582031 C 317.113281 733.027344 319.640625 731.015625 321.800781 728.539062 C 323.964844 726.066406 325.621094 723.292969 326.773438 720.21875 C 328.917969 714.75 329.761719 709.085938 329.304688 703.234375 C 332.285156 702.691406 335.085938 702.148438 337.707031 701.789062 C 338.402344 701.542969 339.117188 701.355469 339.84375 701.226562 C 340.574219 701.097656 341.304688 701.027344 342.046875 701.019531 C 342.785156 701.011719 343.519531 701.066406 344.25 701.179688 C 344.980469 701.292969 345.695312 701.464844 346.398438 701.695312 C 347.101562 701.925781 347.78125 702.214844 348.433594 702.558594 C 349.089844 702.902344 349.710938 703.296875 350.300781 703.742188 C 350.890625 704.1875 351.441406 704.679688 351.949219 705.214844 C 352.460938 705.75 352.921875 706.324219 353.335938 706.9375 C 353.65625 707.601562 353.886719 708.300781 354.023438 709.027344 C 354.164062 709.753906 354.203125 710.484375 354.148438 711.222656 C 354.09375 711.960938 353.941406 712.679688 353.699219 713.375 C 353.453125 714.074219 353.121094 714.726562 352.703125 715.339844 L 352.703125 714.707031 C 352.71875 714.3125 352.699219 713.921875 352.640625 713.535156 C 352.582031 713.148438 352.484375 712.769531 352.351562 712.398438 C 352.214844 712.03125 352.046875 711.679688 351.84375 711.34375 C 351.640625 711.007812 351.40625 710.695312 351.140625 710.40625 C 350.875 710.117188 350.582031 709.855469 350.265625 709.625 C 349.949219 709.394531 349.613281 709.195312 349.253906 709.027344 C 348.898438 708.863281 348.53125 708.734375 348.148438 708.644531 C 347.765625 708.550781 347.378906 708.496094 346.988281 708.480469 C 346.59375 708.464844 346.207031 708.488281 345.816406 708.546875 C 345.429688 708.609375 345.050781 708.707031 344.683594 708.84375 C 344.316406 708.980469 343.964844 709.152344 343.628906 709.355469 C 343.292969 709.5625 342.980469 709.796875 342.695312 710.0625 C 342.40625 710.332031 342.148438 710.625 341.917969 710.941406 C 341.6875 711.257812 341.488281 711.597656 341.324219 711.953125 C 341.164062 712.3125 341.035156 712.679688 340.945312 713.0625 C 340.855469 713.445312 340.800781 713.832031 340.789062 714.222656 C 340.773438 714.617188 340.796875 715.007812 340.859375 715.394531 C 340.925781 715.78125 341.023438 716.160156 341.160156 716.527344 C 341.300781 716.894531 341.472656 717.246094 341.679688 717.578125 C 341.886719 717.914062 342.121094 718.222656 342.390625 718.511719 C 342.660156 718.796875 342.953125 719.054688 343.273438 719.285156 C 343.589844 719.511719 343.929688 719.707031 344.289062 719.871094 C 344.644531 720.03125 345.015625 720.15625 345.398438 720.246094 C 345.78125 720.335938 346.167969 720.386719 346.558594 720.398438 C 346.832031 720.445312 347.101562 720.445312 347.371094 720.398438 C 348.644531 720.222656 349.757812 719.710938 350.714844 718.863281 L 351.4375 718.320312 C 352.910156 717.105469 353.964844 715.601562 354.601562 713.804688 C 355.039062 712.574219 355.257812 711.3125 355.257812 710.007812 C 355.257812 708.707031 355.039062 707.441406 354.601562 706.214844 C 354.332031 705.441406 353.980469 704.707031 353.546875 704.011719 C 353.109375 703.320312 352.605469 702.683594 352.023438 702.105469 C 351.445312 701.527344 350.808594 701.019531 350.117188 700.582031 C 349.421875 700.148438 348.6875 699.796875 347.914062 699.527344 C 346.207031 698.832031 344.429688 698.472656 342.585938 698.445312 C 340.707031 698.5625 338.839844 698.773438 336.984375 699.078125 C 334.363281 699.078125 331.5625 699.980469 328.671875 700.523438 C 328.039062 695.570312 326.472656 690.933594 323.976562 686.609375 C 322.554688 684.277344 320.761719 682.277344 318.59375 680.609375 C 316.429688 678.941406 314.035156 677.722656 311.417969 676.945312 C 308.851562 676.226562 306.246094 675.96875 303.589844 676.171875 C 300.933594 676.371094 298.394531 677.023438 295.96875 678.117188 Z M 230.382812 703.773438 C 231.105469 701.425781 234.265625 701.15625 236.34375 701.15625 C 241.175781 701.234375 245.722656 702.410156 249.984375 704.679688 C 253.972656 706.84375 257.824219 709.222656 261.550781 711.816406 C 240.953125 713.082031 228.9375 708.382812 230.382812 703.773438 Z M 322.257812 718.140625 C 321.089844 720.402344 319.574219 722.398438 317.714844 724.136719 C 315.851562 725.875 313.753906 727.246094 311.417969 728.257812 C 310.269531 728.761719 309.085938 729.140625 307.859375 729.398438 C 306.636719 729.65625 305.398438 729.785156 304.144531 729.785156 C 302.894531 729.785156 301.65625 729.65625 300.429688 729.398438 C 299.203125 729.140625 298.019531 728.761719 296.871094 728.257812 C 291.972656 725.714844 287.695312 722.371094 284.042969 718.230469 C 283.140625 717.234375 282.238281 716.242188 281.242188 714.976562 L 279.796875 713.351562 L 278.804688 712.085938 C 280.519531 712.085938 282.238281 712.085938 283.953125 711.363281 C 285.671875 710.640625 286.933594 711.363281 288.472656 710.640625 C 289.839844 712.242188 291.417969 713.597656 293.207031 714.707031 C 294.992188 715.816406 296.910156 716.628906 298.949219 717.144531 C 301.125 717.703125 303.332031 717.90625 305.574219 717.75 C 307.8125 717.597656 309.972656 717.09375 312.050781 716.242188 C 313.101562 715.84375 314.097656 715.332031 315.03125 714.707031 L 316.023438 714.164062 C 316.023438 714.164062 314.488281 714.164062 311.6875 714.886719 C 307.734375 715.292969 303.9375 714.691406 300.304688 713.082031 C 298.359375 712.203125 296.644531 711 295.15625 709.464844 C 301.480469 708.382812 307.441406 707.296875 313.222656 706.304688 C 319.007812 705.3125 322.257812 704.679688 325.960938 703.867188 C 325.882812 708.921875 324.648438 713.679688 322.257812 718.140625 Z M 310.785156 680.195312 C 311.972656 680.382812 313.125 680.699219 314.246094 681.144531 C 315.363281 681.585938 316.417969 682.148438 317.410156 682.828125 C 318.402344 683.507812 319.308594 684.289062 320.125 685.171875 C 320.945312 686.054688 321.65625 687.015625 322.257812 688.054688 C 324.4375 692.152344 325.609375 696.519531 325.78125 701.15625 C 321.625 701.96875 317.289062 702.78125 312.683594 703.773438 C 306.628906 705.039062 300.214844 706.304688 293.53125 707.570312 C 291.984375 705.507812 290.933594 703.21875 290.367188 700.703125 C 290.195312 699.835938 290.089844 698.964844 290.054688 698.082031 C 290.019531 697.199219 290.050781 696.320312 290.148438 695.445312 C 290.25 694.566406 290.417969 693.703125 290.652344 692.851562 C 290.882812 692.003906 291.183594 691.175781 291.542969 690.371094 C 291.90625 689.566406 292.328125 688.792969 292.808594 688.054688 C 293.292969 687.3125 293.828125 686.617188 294.417969 685.960938 C 295.007812 685.304688 295.644531 684.695312 296.328125 684.140625 C 297.011719 683.582031 297.738281 683.082031 298.5 682.636719 C 300.335938 681.507812 302.308594 680.738281 304.421875 680.316406 C 306.535156 679.898438 308.65625 679.855469 310.785156 680.195312 Z M 310.785156 680.195312 " fill-opacity="1" fill-rule="nonzero"/></g></svg>